<?xml version="1.0" encoding="utf-8"?>
<!-- Generator: Adobe Illustrator 28.3.0, SVG Export Plug-In . SVG Version: 6.00 Build 0)  -->
<svg version="1.1" id="Layer_1" xmlns="http://www.w3.org/2000/svg" xmlns:xlink="http://www.w3.org/1999/xlink" x="0px" y="0px"
	 viewBox="0 0 64 64" style="enable-background:new 0 0 64 64;" xml:space="preserve">
<style type="text/css">
	.st0{fill:#F26522;}
	.st1{fill:#F15A29;}
	.st2{font-family:'BerlinSansFBDemi-Bold';}
	.st3{font-size:32.1288px;}
</style>
<polygon class="st0" points="63.6,3.2 63.6,16.1 50.67,60.61 3.35,60.61 1.22,53.34 2.34,46.9 5.61,42.03 51.77,42.37 "/>
<path d="M51.06,61.25H2.23l-0.24-0.64c-0.08-0.2-1.85-4.95-1.85-8.11c0-4.12,1.8-8.02,1.88-8.18l0.27-0.57h48.77v1.97H3.56
	c-0.47,1.17-1.46,3.97-1.46,6.78c0,2.18,1.03,5.42,1.5,6.78l46.56,0.16l13.43-44.5l0.01-0.4h0.35v1.43L51.06,61.25z"/>
<g>
	<polygon points="64.05,2.75 19.7,2.75 2.34,43.8 3.12,43.8 2.34,45.58 51.23,45.58 64.05,4.06 	"/>
</g>
<text transform="matrix(0.8406 5.803244e-03 -0.3719 0.9283 14.1811 33.8581)" class="st1 st2 st3">BT</text>
<path d="M66.07,14.69"/>
</svg>
